Coordinates
version=1
nRows=65
nColumns=12
inDegrees=yes

Units are S.I. units (second, meters, Newtons, ...)
Angles are in degrees

endheader
time	SC_y	SC_z	SC_x	AC_y	AC_z	AC_x	GH_y	GH_z	GH_yy	EL_x	PS_y
       0.0              -36.41          3.302          15.92           55.7          9.005           15.6          21.63          66.14          124.1          136.9          42.09
    0.0179               -36.4          3.306          15.92           55.7          9.001          15.59          21.63          66.14          124.1          136.9          42.09
    0.0358               -36.4           3.31          15.92           55.7          8.997          15.59          21.64          66.14          124.1          136.9           42.1
    0.0537               -36.4          3.314          15.92           55.7          8.992          15.59          21.65          66.14          124.0          136.8           42.1
    0.0716               -36.4          3.319          15.92           55.7          8.987          15.59          21.65          66.14          124.0          136.8           42.1
    0.0895               -36.4          3.324          15.92           55.7          8.981          15.59          21.66          66.14          123.9          136.8           42.1
    0.1074               -36.4          3.329          15.92          55.69          8.976          15.59          21.67          66.14          123.9          136.8           42.1
    0.1253               -36.4          3.334          15.92          55.69          8.969          15.59          21.68          66.14          123.8          136.8           42.1
    0.1432               -36.4           3.34          15.92          55.69          8.963          15.59          21.69          66.14          123.7          136.8           42.1
    0.1611               -36.4          3.346          15.92          55.69          8.956          15.59           21.7          66.13          123.7          136.8           42.1
     0.179               -36.4          3.353          15.92          55.69          8.948          15.59          21.71          66.13          123.6          136.8          42.11
    0.1969              -36.39           3.36          15.92          55.68           8.94          15.58          21.73          66.13          123.5          136.7          42.11
    0.2148              -36.39          3.368          15.92          55.68          8.931          15.58          21.74          66.13          123.4          136.7          42.11
    0.2327              -36.39          3.377          15.92          55.68          8.921          15.58          21.75          66.13          123.4          136.7          42.11
    0.2506              -36.39          3.386          15.91          55.68          8.911          15.58          21.77          66.12          123.3          136.7          42.11
    0.2685              -36.39          3.396          15.91          55.67            8.9          15.58          21.79          66.12          123.2          136.7          42.12
    0.2864              -36.38          3.407          15.91          55.67          8.888          15.58          21.81          66.12          123.0          136.6          42.12
    0.3043              -36.38          3.418          15.91          55.67          8.874          15.57          21.83          66.12          122.9          136.6          42.12
    0.3222              -36.38          3.431          15.91          55.66           8.86          15.57          21.85          66.11          122.8          136.6          42.13
    0.3401              -36.38          3.445          15.91          55.66          8.844          15.57          21.87          66.11          122.6          136.5          42.13
     0.358              -36.37          3.461          15.91          55.65          8.827          15.57           21.9          66.11          122.5          136.5          42.13
    0.3759              -36.37          3.478           15.9          55.65          8.807          15.56          21.93           66.1          122.3          136.5          42.14
    0.3938              -36.37          3.496           15.9          55.64          8.786          15.56          21.96           66.1          122.1          136.4          42.14
    0.4117              -36.36          3.517           15.9          55.63          8.763          15.56           22.0          66.09          121.9          136.4          42.15
    0.4296              -36.36           3.54           15.9          55.63          8.737          15.55          22.04          66.09          121.6          136.3          42.15
    0.4475              -36.35          3.566          15.89          55.62          8.708          15.55          22.08          66.08          121.4          136.3          42.16
    0.4654              -36.35          3.595          15.89          55.61          8.675          15.54          22.14          66.08          121.1          136.2          42.17
    0.4833              -36.34          3.628          15.89           55.6          8.638          15.54          22.19          66.07          120.7          136.1          42.17
    0.5012              -36.33          3.664          15.88          55.59          8.597          15.53          22.26          66.06          120.3          136.0          42.18
    0.5191              -36.33          3.706          15.88          55.57           8.55          15.52          22.33          66.05          119.9          135.9          42.19
     0.537              -36.32          3.754          15.87          55.56          8.496          15.51          22.41          66.04          119.4          135.8          42.21
    0.5549              -36.31          3.809          15.86          55.54          8.434           15.5          22.51          66.02          118.8          135.7          42.22
    0.5728              -36.29          3.872          15.86          55.52          8.363          15.49          22.62          66.01          118.2          135.6          42.24
    0.5907              -36.28          3.945          15.85           55.5           8.28          15.48          22.74          65.99          117.4          135.4          42.25
    0.6086              -36.26          4.031          15.84          55.47          8.184          15.46          22.89          65.97          116.5          135.2          42.28
    0.6265              -36.24          4.132          15.83          55.44           8.07          15.44          23.07          65.95          115.4          134.9           42.3
    0.6444              -36.22          4.252          15.81           55.4          7.934          15.42          23.28          65.92          114.2          134.7          42.33
    0.6623              -36.19          4.396           15.8          55.36          7.771          15.39          23.53          65.89          112.7          134.3          42.37
    0.6802              -36.15          4.571          15.77           55.3          7.575          15.36          23.83          65.85          110.8          133.9          42.41
    0.6981              -36.11          4.784          15.75          55.23          7.335          15.32           24.2           65.8          108.6          133.4          42.46
     0.716              -36.06          5.047          15.72          55.15          7.038          15.27          24.66          65.73          105.9          132.8          42.53
    0.7339               -36.0          5.375          15.68          55.05          6.668          15.21          25.23          65.66          102.4          132.1          42.61
    0.7518              -35.91          5.787          15.63          54.91          6.203          15.13          25.95          65.56          98.11          131.1          42.71
    0.7697              -35.81          6.312          15.57          54.75          5.611          15.04          26.86          65.44          92.61          129.9          42.84
    0.7876              -35.68          6.984          15.49          54.53          4.853          14.91          28.03          65.28          85.57          128.3          43.01
    0.8055              -35.51          7.847          15.39          54.26          3.881          14.75          29.53          65.07          76.54          126.3          43.23
    0.8234              -35.29          8.948          15.26          53.91          2.639          14.55          31.45          64.82          65.01          123.8           43.5
    0.8413              -35.02          10.33          15.09          53.47          1.077          14.29          33.86          64.49           50.5          120.6          43.85
    0.8592              -34.68          12.02          14.89          52.94        -0.8265          13.98           36.8          64.09          32.83          116.6          44.27
    0.8771               -34.3          13.98          14.66          52.32         -3.033          13.61           40.2          63.63          12.34          112.1          44.76
     0.895              -33.88           16.1          14.41          51.64         -5.421          13.22          43.89          63.13         -9.847          107.2          45.29
    0.9129              -33.46          18.21          14.16          50.97          -7.81          12.83          47.57          62.64         -32.03          102.3          45.81
    0.9308              -33.08          20.17          13.93          50.35         -10.02          12.47          50.98          62.18         -52.52          97.74           46.3
    0.9487              -32.74          21.86          13.73          49.82         -11.92          12.15          53.92          61.78         -70.19          93.82          46.72
    0.9666              -32.47          23.24          13.56          49.38         -13.48           11.9          56.33          61.45          -84.7          90.61          47.07
    0.9845              -32.25          24.34          13.43          49.03         -14.72          11.69          58.24          61.19         -96.23          88.06          47.34
     1.002              -32.08          25.21          13.33          48.75          -15.7          11.53          59.74          60.99         -105.3          86.06          47.56
      1.02              -31.95          25.88          13.25          48.54         -16.45          11.41          60.91          60.83         -112.3           84.5          47.73
     1.038              -31.84           26.4          13.19          48.37         -17.05          11.31          61.83          60.71         -117.8          83.28          47.86
     1.056              -31.76          26.82          13.14          48.24         -17.51          11.23          62.54          60.61         -122.1          82.32          47.96
     1.074               -31.7          27.14           13.1          48.14         -17.88          11.17          63.12          60.54         -125.6          81.56          48.04
     1.092              -31.65          27.41          13.07          48.06         -18.18          11.12          63.57          60.47         -128.3          80.95          48.11
      1.11               -31.6          27.62          13.05          47.99         -18.42          11.08          63.94          60.42         -130.5          80.46          48.16
     1.128              -31.57          27.79          13.02          47.93         -18.61          11.05          64.25          60.38         -132.4          80.05           48.2
     1.146              -31.54          27.94          13.01          47.89         -18.78          11.02           64.5          60.35         -133.9          79.72          48.24
